<svg width="1544mm" height="500mm" version="1.1" viewBox="0 0 1544 500" xmlns="http://www.w3.org/2000/svg">
 <g transform="translate(0,203)" display="none">
  <rect x="-4.213" y="-200.81" width="797.23" height="502.77" display="inline" fill="#9ec9ff" style="paint-order:normal"/>
  <rect x="792.3" y="-200.28" width="754.35" height="501.87" display="inline" fill="#9ebdff" style="paint-order:normal"/>
 </g>
 <g display="none">
  <rect x="126.34" y="60.263" width="509.35" height="402.39" display="inline" fill="#5ba4ff" style="paint-order:normal"/>
  <rect x="-4.5129" y=".60635" width="796.26" height="62.77" display="inline" fill="#187eff" style="paint-order:normal"/>
  <rect x="-5.0876" y="462.57" width="797.93" height="41.819" display="inline" fill="#187eff" style="paint-order:normal"/>
  <rect x="156.32" y="94.779" width="136.16" height="131.12" display="inline" fill="#838800" style="paint-order:normal"/>
  <rect x="312.11" y="94.779" width="293.76" height="30.258" display="inline" fill="#187eff" style="paint-order:normal"/>
  <rect x="312.11" y="144.66" width="293.76" height="30.258" display="inline" fill="#338dff" style="paint-order:normal"/>
  <rect x="312.11" y="194.54" width="293.76" height="30.258" display="inline" fill="#187eff" style="paint-order:normal"/>
  <rect x="156.32" y="247.48" width="448.83" height="30.258" display="inline" fill="#338dff" style="paint-order:normal"/>
  <rect x="156.32" y="297.37" width="448.83" height="30.258" display="inline" fill="#187eff" style="paint-order:normal"/>
  <rect x="156.32" y="348.07" width="448.83" height="30.258" display="inline" fill="#338dff" style="paint-order:normal"/>
  <rect x="913.94" y="62.046" width="509.35" height="402.44" display="inline" fill="#5ba4ff" style="paint-order:normal"/>
  <rect x="791.74" y=".33685" width="751.55" height="63.039" display="inline" fill="#1867cb" style="paint-order:normal"/>
  <rect x="793.1" y="462.62" width="753.24" height="41.789" display="inline" fill="#1867cb" style="paint-order:normal"/>
  <rect x="943.92" y="322.88" width="448.83" height="30.258" display="inline" fill="#187eff" style="paint-order:normal"/>
  <rect x="943.92" y="367.69" width="448.83" height="30.258" display="inline" fill="#338dff" style="paint-order:normal"/>
  <rect x="943.92" y="126.14" width="448.83" height="30.258" display="inline" fill="#338dff" style="paint-order:normal"/>
  <rect x="943.92" y="170.95" width="448.83" height="30.258" display="inline" fill="#187eff" style="paint-order:normal"/>
  <rect x="1059.8" y="216.95" width="210.26" height="90.775" display="inline" fill="#9a3700" style="paint-order:normal"/>
  <g fill="#187eff">
   <rect x="156.32" y="399.91" width="448.83" height="30.258" display="inline" style="paint-order:normal"/>
   <rect x="943.92" y="81.002" width="448.83" height="30.258" display="inline" style="paint-order:normal"/>
   <rect transform="translate(0,203)" x="968.26" y="210.97" width="448.83" height="30.258" display="inline" style="paint-order:normal"/>
  </g>
  <rect x="1081.7" y="473.67" width="210.26" height="15.129" display="inline" fill="#9a3700" style="paint-order:normal"/>
  <rect x="280.28" y="474.73" width="210.26" height="15.129" display="inline" fill="#9a3700" style="paint-order:normal"/>
  <rect x="6.5866" y="9.0568" width="86.362" height="44.757" display="inline" fill="#7c47f4" style="paint-order:normal"/>
  <rect transform="translate(0,203)" x="803.79" y="-192.7" width="86.363" height="44.757" display="inline" fill="#3cba0d" style="paint-order:normal"/>
  <g fill="#7c47f4">
   <rect transform="translate(0,203)" x="426.35" y="-179.17" width="102.12" height="22.694" display="inline" style="paint-order:normal"/>
   <rect transform="translate(0,203)" x="542.21" y="-179.17" width="102.12" height="22.694" display="inline" style="paint-order:normal"/>
   <rect transform="translate(0,203)" x="660.03" y="-179.17" width="102.12" height="22.694" display="inline" style="paint-order:normal"/>
  </g>
  <g fill="#3cba0d">
   <rect transform="translate(0,203)" x="1186.5" y="-180.07" width="102.12" height="22.694" display="inline" style="paint-order:normal"/>
   <rect transform="translate(0,203)" x="1302.4" y="-180.07" width="102.12" height="22.694" display="inline" style="paint-order:normal"/>
   <rect transform="translate(0,203)" x="1420.2" y="-180.07" width="102.12" height="22.694" display="inline" style="paint-order:normal"/>
  </g>
 </g>
 <g display="none">
  <rect x="-7.388" y="-.14258" width="1554.4" height="506.88" display="inline" fill="#71b0ff" opacity=".86" style="paint-order:normal"/>
 </g>
 <g fill="none" stroke="#3386ff" stroke-width="6.6146">
  <path d="m1452.3 278.84h35.547m-71.896 0h36.349l15.315-26.526h40.277m-160.9 26.526h68.956l15.012 26.001h21.337"/>
  <path d="m683.52 339.31v58.815m0-94.095v35.28l35.226 33.561v33.48"/>
  <path d="m473.84 307.22v35.28l-10.578 18.322v17.492"/>
  <path d="m106.41 228.22h-65.748m167.31 0h-101.56l-24.387-42.24h-43.499"/>
  <path d="m366.4 150.94v-31.238m0 51.011v-19.773l33.765-13.63v-13.915m-33.765 77.022v-29.705l-43.89-15.464v-23.787"/>
  <path d="m173.82 281.34h-71.094"/>
  <path d="m1047.8 155.65v-50.514m0 101.56v-51.048l35.478-12.234v-19.571"/>
  <path d="m871.16 207.58v-40.625l-28.865-28.865v-36.349"/>
  <path d="m748.18 129.45v-40.892m0 76.974v-36.081l-51.711-16.107v-26.121m51.711 121.07v-42.763l50.904-13.502v-18.837"/>
  <path d="m1285.4 203.67v-31.003l-36.081-36.081v-39.021"/>
  <path d="m1026.4 379.06v40.892m0-76.974v36.081l50.123 16.107v26.121m-50.123-121.07v42.763l-23.387 13.502v18.837"/>
  <path d="m1242.4 351.94v50.514m0-101.56v51.048l35.478 12.234v19.571"/>
  <path d="m457.03 205.97v-40.625l28.865-28.865v-36.349"/>
  <path d="m945.46 301.44v79.848"/>
  <path d="m596.81 166.45v-32.072m0 67.619v-35.547l44.882-12.026v-19.244"/>
  <path d="m1379.1 233.72h58.265"/>
  <path d="m337.14 338.76v45.355m0-70.881v25.526l-50.736 13.595v47.582"/>
  <path d="m1131.2 209.32v-47.039"/>
  <path d="m623.77 307.1v62.007"/>
  <path d="m761.69 307.59v47.039"/>
  <path d="m215.38 304.95v31.003l-36.081 36.081v39.021"/>
  <path d="m212.99 205.6v-62.007"/>
  <path d="m286.39 160.17v-32.072m0 67.619v-35.547l-44.882-12.026v-19.244"/>
  <path d="m543.26 374.52v40.892m0-76.974v36.081l-42.186 16.107v26.121m42.186-121.07v42.763l23.387 13.502v18.837"/>
  <path d="m1160.2 335.73v45.355m0-70.881v25.526l50.736 13.595v47.582"/>
  <path d="m1103.2 302.18v40.625l28.865 28.865v36.349"/>
  <path d="m1342 308.77v79.848"/>
  <path d="m1195.2 203.92v-79.848"/>
  <path d="m1334.4 222.09v-79.848"/>
  <path d="m930.33 211.49v-79.848"/>
  <path d="m390.44 292.86v40.625l28.865 28.865v36.349"/>
  <path d="m533.64 205.34v-79.848"/>
  <path d="m249.24 304.95v62.007"/>
  <path d="m896.56 342.37v45.355m0-70.881v25.526l-50.736 13.595v47.582"/>
  <path d="m204.35 255.41h-71.094"/>
  <path transform="translate(298.27 461.58)" d="m695.03-251.77v-62.007"/>
 </g>
 <g>
  <rect x="166.55" y="189.23" width="1224.4" height="128.96" ry="24.214" fill="#4a99fc" stroke="#3386ff" stroke-width="9.2604" style="paint-order:fill markers stroke"/>
  <g fill="#ff9203" stroke="#ffdb00" stroke-width="5">
   <circle transform="translate(97.391 430.95)" cx="833.47" cy="-305.18" r="9.7214" style="paint-order:fill markers stroke"/>
   <circle transform="rotate(90)" cx="96.499" cy="-1250.9" r="9.7214" style="paint-order:fill markers stroke"/>
   <circle transform="rotate(90)" cx="387.76" cy="-1278.6" r="9.7214" style="paint-order:fill markers stroke"/>
   <circle transform="rotate(90)" cx="405.4" cy="-1242.9" r="9.7214" style="paint-order:fill markers stroke"/>
   <circle cx="1440.5" cy="232.12" r="9.7214" style="paint-order:fill markers stroke"/>
   <circle cx="1506.8" cy="251.57" r="9.7214" style="paint-order:fill markers stroke"/>
   <circle cx="1489.7" cy="278.3" r="9.7214" style="paint-order:fill markers stroke"/>
   <circle cx="1454.4" cy="304.49" r="9.7214" style="paint-order:fill markers stroke"/>
   <circle transform="scale(1,-1)" cx="1342.5" cy="-394.5" r="9.7214" style="paint-order:fill markers stroke"/>
   <circle cx="1334.9" cy="136.36" r="9.7214" style="paint-order:fill markers stroke"/>
   <circle transform="matrix(0,-1,-1,0,0,0)" cx="-119.84" cy="-1084" r="9.7214" style="paint-order:fill markers stroke"/>
   <circle transform="matrix(0,-1,-1,0,0,0)" cx="-102.2" cy="-1048.3" r="9.7214" style="paint-order:fill markers stroke"/>
   <circle transform="rotate(-90)" cx="-99.606" cy="840.42" r="9.7214" style="paint-order:fill markers stroke"/>
   <circle transform="rotate(90)" cx="84.284" cy="-696.32" r="9.7214" style="paint-order:fill markers stroke"/>
   <circle transform="rotate(90)" cx="88.56" cy="-749.52" r="9.7214" style="paint-order:fill markers stroke"/>
   <circle transform="rotate(90)" cx="131.32" cy="-798.95" r="9.7214" style="paint-order:fill markers stroke"/>
   <circle transform="rotate(-90)" cx="-424.23" cy="1076.7" r="9.7214" style="paint-order:fill markers stroke"/>
   <circle transform="rotate(-90)" cx="-419.96" cy="1025" r="9.7214" style="paint-order:fill markers stroke"/>
   <circle transform="rotate(-90)" cx="-377.19" cy="1002.6" r="9.7214" style="paint-order:fill markers stroke"/>
   <circle transform="scale(1,-1)" cx="946" cy="-387.17" r="9.7214" style="paint-order:fill markers stroke"/>
   <circle cx="718.89" cy="406.22" r="9.7214" style="paint-order:fill markers stroke"/>
   <circle cx="684.06" cy="398.13" r="9.7214" style="paint-order:fill markers stroke"/>
   <circle cx="1131.7" cy="156.4" r="9.7214" style="paint-order:fill markers stroke"/>
   <circle transform="scale(1,-1)" cx="762.22" cy="-360.51" r="9.7214" style="paint-order:fill markers stroke"/>
   <circle transform="scale(-1,1)" cx="-1159.9" cy="383.75" r="9.7214" style="paint-order:fill markers stroke"/>
   <circle transform="scale(-1,1)" cx="-1211.2" cy="393.78" r="9.7214" style="paint-order:fill markers stroke"/>
   <circle transform="rotate(90)" cx="410.16" cy="-1134" r="9.7214" style="paint-order:fill markers stroke"/>
   <circle cx="1195.7" cy="118.2" r="9.7214" style="paint-order:fill markers stroke"/>
   <circle cx="896.86" cy="390.39" r="9.7214" style="paint-order:fill markers stroke"/>
   <circle cx="845.54" cy="400.42" r="9.7214" style="paint-order:fill markers stroke"/>
   <circle transform="matrix(0,-1,-1,0,0,0)" cx="-97.992" cy="-487.76" r="9.7214" style="paint-order:fill markers stroke"/>
   <circle cx="642.24" cy="129.3" r="9.7214" style="paint-order:fill markers stroke"/>
   <circle cx="596.27" cy="133.04" r="9.7214" style="paint-order:fill markers stroke"/>
   <circle cx="463.68" cy="378.33" r="9.7214" style="paint-order:fill markers stroke"/>
   <circle cx="337.44" cy="386.78" r="9.7214" style="paint-order:fill markers stroke"/>
   <circle cx="286.12" cy="396.81" r="9.7214" style="paint-order:fill markers stroke"/>
   <circle cx="322.56" cy="128.79" r="9.7214" style="paint-order:fill markers stroke"/>
   <circle cx="366.93" cy="124.46" r="9.7214" style="paint-order:fill markers stroke"/>
   <circle cx="399.99" cy="116.99" r="9.7214" style="paint-order:fill markers stroke"/>
   <circle cx="95.779" cy="280.27" r="9.7214" style="paint-order:fill markers stroke"/>
   <circle transform="scale(1,-1)" cx="624.31" cy="-374.98" r="9.7214" style="paint-order:fill markers stroke"/>
   <circle transform="matrix(0,-1,-1,0,0,0)" cx="-412.13" cy="-180.9" r="9.7214" style="paint-order:fill markers stroke"/>
   <circle cx="213.52" cy="137.71" r="9.7214" style="paint-order:fill markers stroke"/>
   <circle transform="scale(-1,1)" cx="-240.95" cy="123.02" r="9.7214" style="paint-order:fill markers stroke"/>
   <circle transform="scale(-1,1)" cx="-286.92" cy="126.76" r="9.7214" style="paint-order:fill markers stroke"/>
   <circle transform="matrix(0,-1,-1,0,0,0)" cx="-419.69" cy="-500.93" r="9.7214" style="paint-order:fill markers stroke"/>
   <circle transform="matrix(0,-1,-1,0,0,0)" cx="-415.42" cy="-544.6" r="9.7214" style="paint-order:fill markers stroke"/>
   <circle transform="matrix(0,-1,-1,0,0,0)" cx="-372.65" cy="-567.05" r="9.7214" style="paint-order:fill markers stroke"/>
   <circle transform="rotate(90)" cx="400.84" cy="-421.17" r="9.7214" style="paint-order:fill markers stroke"/>
   <circle cx="534.17" cy="119.61" r="9.7214" style="paint-order:fill markers stroke"/>
   <circle transform="scale(1,-1)" cx="249.78" cy="-372.84" r="9.7214" style="paint-order:fill markers stroke"/>
   <circle cx="126.3" cy="254.34" r="9.7214" style="paint-order:fill markers stroke"/>
   <circle cx="36.915" cy="228.76" r="9.7214" style="paint-order:fill markers stroke"/>
   <circle cx="34.242" cy="185.99" r="9.7214" style="paint-order:fill markers stroke"/>
  </g>
  <g transform="translate(298.27 461.58)">
   <circle cx="695.56" cy="-319.65" r="9.7214" fill="#ff9203" stroke="#ffdb00" stroke-width="5" style="paint-order:fill markers stroke"/>
  </g>
 </g>
 <g display="none">
  <flowRoot transform="matrix(.86194 0 0 .86194 180.01 98.447)" display="inline" fill="#004fa9" font-family="sans-serif" font-size="40px" letter-spacing="0px" stroke-opacity=".25794" stroke-width="6.1393" word-spacing="0px" style="line-height:1.25" xml:space="preserve"><flowRegion><rect x="-1.8172" y="134.74" width="1548.3" height="219.88" fill="#004fa9"/></flowRegion><flowPara font-family="Orbitron" font-size="74.667px" font-weight="bold">Page Restrict for WooCommerce</flowPara></flowRoot>
 </g>
 <g>
  <g transform="matrix(.86194 0 0 .86194 186.74 98.702)" fill="#004089" aria-label="Page Restrict for WooCommerce">
   <path d="m2.3649 204.27v-53.685h43.307q4.3307 0 7.392 3.136 3.0613 3.0613 3.0613 7.2427v14.485q0 4.256-3.0613 7.3173-3.0613 3.0613-7.392 3.0613l-33.451.0747v18.368zm12.469-28.373h28.747q2.016 0 2.3147-.224t.29867-2.3147v-10.304q0-2.0907-.29867-2.3147-.29867-.29867-2.3147-.29867h-28.747q-2.0907 0-2.3893.29867-.224.224-.224 2.3147v10.304q0 2.0907.224 2.3147.29867.224 2.3893.224z"/>
   <path d="m71.433 204.27q-4.256 0-7.3173-2.9867-2.9867-3.0613-2.9867-7.3173v-16.277h34.197v-4.3307q0-2.0907-.29867-2.3147-.224-.29867-2.3147-.29867h-31.584v-9.7813h33.675q4.256 0 7.2427 3.0613 3.0613 2.9867 3.0613 7.2427v33.003zm2.0907-9.7813h21.803v-7.9893h-24.416v5.376q0 2.0907.224 2.3893.29867.224 2.3893.224z"/>
   <path d="m118.74 221.37v-9.856h24.416q2.016 0 2.24-.29867.29867-.224.29867-2.3147v-4.6293h-23.893q-4.256 0-7.3173-2.9867-2.9867-3.0613-2.9867-7.3173v-22.699q0-4.256 2.9867-7.2427 3.0613-3.0613 7.3173-3.0613h23.445q4.256 0 7.2427 3.0613 2.9867 2.9867 2.9867 7.2427v39.797q0 4.256-2.9867 7.2427-2.9867 3.0613-7.2427 3.0613zm5.152-26.88h19.264q2.016 0 2.24-.224.29867-.29867.29867-2.3893v-18.517q0-2.0907-.29867-2.3147-.224-.29867-2.24-.29867h-19.264q-2.0907 0-2.3893.29867-.224.224-.224 2.3147v18.517q0 2.0907.224 2.3893.29867.224 2.3893.224z"/>
   <path d="m171.98 204.27q-4.256 0-7.3173-2.9867-2.9867-3.0613-2.9867-7.3173v-22.699q0-4.256 2.9867-7.2427 3.0613-3.0613 7.3173-3.0613h23.371q4.256 0 7.2427 3.0613 3.0613 2.9867 3.0613 7.2427v16.277h-34.197v4.3307q0 2.0907.224 2.3893.29866.224 2.3893.224h31.584v9.7813zm-.52266-25.536h24.416v-5.376q0-2.0907-.29867-2.3147-.224-.29867-2.3147-.29867h-19.189q-2.0907 0-2.3893.29867-.224.224-.224 2.3147z"/>
   <path d="m236.5 204.27v-53.685h43.307q4.3307 0 7.392 3.136 3.0613 3.0613 3.0613 7.2427v14.485q0 4.256-3.0613 7.3173-3.0613 3.0613-7.392 3.0613h-2.912l13.291 15.68v2.7627h-10.752l-15.456-18.443-17.621.0747v18.368zm12.469-28.373h28.747q2.016 0 2.24-.224.29866-.224.29866-2.3147v-10.304q0-2.0907-.29866-2.3147-.224-.29867-2.24-.29867h-28.747q-2.0907 0-2.3893.29867-.224.224-.224 2.3147v10.304q0 2.0907.224 2.3147.29866.224 2.3893.224z"/>
   <path d="m308.05 204.27q-4.256 0-7.3173-2.9867-2.9867-3.0613-2.9867-7.3173v-22.699q0-4.256 2.9867-7.2427 3.0613-3.0613 7.3173-3.0613h23.371q4.256 0 7.2427 3.0613 3.0613 2.9867 3.0613 7.2427v16.277h-34.197v4.3307q0 2.0907.224 2.3893.29866.224 2.3893.224h31.584v9.7813zm-.52266-25.536h24.416v-5.376q0-2.0907-.29867-2.3147-.224-.29867-2.3147-.29867h-19.189q-2.0907 0-2.3893.29867-.224.224-.224 2.3147z"/>
   <path d="m358.86 204.27q-4.256 0-7.3173-2.9867-2.9867-3.0613-2.9867-7.3173v-1.6427h9.7813v.448q0 1.1947.224 1.4933.29867.224 1.4933.224h20.981q1.1947 0 1.4187-.224.29866-.29867.29866-1.4933v-3.5093q0-1.1947-.29866-1.4187-.224-.29867-1.4187-.29867h-22.176q-4.256 0-7.3173-3.0613-2.9867-3.0613-2.9867-7.2427v-5.9733q0-4.256 2.9867-7.2427 3.0613-3.0613 7.3173-3.0613h23.371q4.256 0 7.3173 3.0613 3.0613 2.9867 3.0613 7.2427v1.6427h-9.856v-.448q0-1.1947-.29866-1.4187-.224-.29867-1.4187-.29867h-20.981q-1.1947 0-1.4933.29867-.224.224-.224 1.4187v3.5093q0 1.1947.224 1.4933.29867.224 1.4933.224h22.176q4.256 0 7.3173 3.0613 3.0613 3.0613 3.0613 7.2427v5.9733q0 4.256-3.0613 7.3173-3.0613 2.9867-7.3173 2.9867z"/>
   <path d="m410.42 204.27q-4.256 0-7.3173-2.9867-2.9867-3.0613-2.9867-7.3173v-46.293h9.7813v13.291h16.875v9.7813h-16.875v21.131q0 2.0907.224 2.3893.29866.224 2.3893.224h14.261v9.7813z"/>
   <path d="m433.3 204.27v-33.003q0-4.256 2.9867-7.2427 3.0613-3.0613 7.3173-3.0613h24.043v9.7813h-21.952q-2.0907 0-2.3893.29867-.224.224-.224 2.3147v30.912z"/>
   <path d="m473.25 204.27v-43.307h9.7813v43.307zm0-47.637v-9.856h9.7813v9.856z"/>
   <path d="m500.25 204.27q-4.256 0-7.3173-2.9867-2.9867-3.0613-2.9867-7.3173v-22.699q0-4.256 2.9867-7.2427 3.0613-3.0613 7.3173-3.0613h33.6v9.7813h-31.509q-2.0907 0-2.3893.29867-.224.224-.224 2.3147v18.517q0 2.0907.224 2.3893.29867.224 2.3893.224h31.584v9.7813z"/>
   <path d="m550.42 204.27q-4.256 0-7.3173-2.9867-2.9867-3.0613-2.9867-7.3173v-46.293h9.7813v13.291h16.875v9.7813h-16.875v21.131q0 2.0907.224 2.3893.29866.224 2.3893.224h14.261v9.7813z"/>
   <path d="m595.68 204.27v-47.189q0-4.256 2.9867-7.2427 3.0613-3.0613 7.3173-3.0613h16.352v9.856h-14.261q-2.0907 0-2.3893.29867-.224.224-.224 2.24v1.792h16.875v9.7813h-16.875v33.525z"/>
   <path d="m638.5 204.27q-4.256 0-7.3173-2.9867-2.9867-3.0613-2.9867-7.3173v-22.699q0-4.256 2.9867-7.2427 3.0613-3.0613 7.3173-3.0613h23.371q4.256 0 7.2427 3.0613 3.0613 2.9867 3.0613 7.2427v22.699q0 4.256-3.0613 7.3173-2.9867 2.9867-7.2427 2.9867zm2.0907-9.7813h19.189q2.0907 0 2.3147-.224.29867-.29867.29867-2.3893v-18.517q0-2.0907-.29867-2.3147-.224-.29867-2.3147-.29867h-19.189q-2.0907 0-2.3893.29867-.224.224-.224 2.3147v18.517q0 2.0907.224 2.3893.29867.224 2.3893.224z"/>
   <path d="m678.3 204.27v-33.003q0-4.256 2.9867-7.2427 3.0613-3.0613 7.3173-3.0613h24.043v9.7813h-21.952q-2.0907 0-2.3893.29867-.224.224-.224 2.3147v30.912z"/>
   <path d="m758.42 204.27-19.563-53.76h10.453l12.992 35.467 12.992-35.467h9.632l12.992 35.467 12.917-35.467h10.528l-19.563 53.76h-7.7653l-13.963-38.08-13.888 38.08z"/>
   <path d="m834.5 204.27q-4.256 0-7.3173-2.9867-2.9867-3.0613-2.9867-7.3173v-22.699q0-4.256 2.9867-7.2427 3.0613-3.0613 7.3173-3.0613h23.371q4.256 0 7.2427 3.0613 3.0613 2.9867 3.0613 7.2427v22.699q0 4.256-3.0613 7.3173-2.9867 2.9867-7.2427 2.9867zm2.0907-9.7813h19.189q2.0907 0 2.3147-.224.29867-.29867.29867-2.3893v-18.517q0-2.0907-.29867-2.3147-.224-.29867-2.3147-.29867h-19.189q-2.0907 0-2.3893.29867-.224.224-.224 2.3147v18.517q0 2.0907.224 2.3893.29867.224 2.3893.224z"/>
   <path d="m884.38 204.27q-4.256 0-7.3173-2.9867-2.9867-3.0613-2.9867-7.3173v-22.699q0-4.256 2.9867-7.2427 3.0613-3.0613 7.3173-3.0613h23.371q4.256 0 7.2427 3.0613 3.0613 2.9867 3.0613 7.2427v22.699q0 4.256-3.0613 7.3173-2.9867 2.9867-7.2427 2.9867zm2.0907-9.7813h19.189q2.0907 0 2.3147-.224.29867-.29867.29867-2.3893v-18.517q0-2.0907-.29867-2.3147-.224-.29867-2.3147-.29867h-19.189q-2.0907 0-2.3893.29867-.224.224-.224 2.3147v18.517q0 2.0907.224 2.3893.29867.224 2.3893.224z"/>
   <path d="m936.45 204.27q-4.256 0-7.3173-3.0613-3.0613-3.0613-3.0613-7.3173v-33.003q0-4.256 3.0613-7.3173 3.0613-3.0613 7.3173-3.0613h43.232v9.9307h-41.141q-2.0907 0-2.3893.29867-.224.224-.224 2.3147v28.672q0 2.0907.224 2.3893.29867.224 2.3893.224h41.141v9.9307z"/>
   <path d="m997.4 204.27q-4.256 0-7.3173-2.9867-2.9867-3.0613-2.9867-7.3173v-22.699q0-4.256 2.9867-7.2427 3.0613-3.0613 7.3173-3.0613h23.371q4.256 0 7.2427 3.0613 3.0613 2.9867 3.0613 7.2427v22.699q0 4.256-3.0613 7.3173-2.9867 2.9867-7.2427 2.9867zm2.0907-9.7813h19.189q2.0907 0 2.3147-.224.2987-.29867.2987-2.3893v-18.517q0-2.0907-.2987-2.3147-.224-.29867-2.3147-.29867h-19.189q-2.0907 0-2.3893.29867-.224.224-.224 2.3147v18.517q0 2.0907.224 2.3893.29867.224 2.3893.224z"/>
   <path d="m1038.9 204.27v-43.307h53.685q4.256 0 7.2426 3.0613 3.0614 2.9867 3.0614 7.2427v33.003h-9.7067v-30.912q0-2.0907-.2987-2.3147-.2986-.29867-2.3146-.29867h-12.096q-2.0907 0-2.3894.29867-.224.224-.224 2.3147v30.912h-9.856v-30.912q0-2.0907-.2986-2.3147-.224-.29867-2.3147-.29867h-12.096q-2.0907 0-2.3893.29867-.224.224-.224 2.3147v30.912z"/>
   <path d="m1108.8 204.27v-43.307h53.685q4.256 0 7.2426 3.0613 3.0614 2.9867 3.0614 7.2427v33.003h-9.7067v-30.912q0-2.0907-.2987-2.3147-.2986-.29867-2.3146-.29867h-12.096q-2.0907 0-2.3894.29867-.224.224-.224 2.3147v30.912h-9.856v-30.912q0-2.0907-.2986-2.3147-.224-.29867-2.3147-.29867h-12.096q-2.0907 0-2.3893.29867-.224.224-.224 2.3147v30.912z"/>
   <path d="m1189.9 204.27q-4.256 0-7.3173-2.9867-2.9867-3.0613-2.9867-7.3173v-22.699q0-4.256 2.9867-7.2427 3.0613-3.0613 7.3173-3.0613h23.371q4.256 0 7.2427 3.0613 3.0613 2.9867 3.0613 7.2427v16.277h-34.197v4.3307q0 2.0907.224 2.3893.2986.224 2.3893.224h31.584v9.7813zm-.5226-25.536h24.416v-5.376q0-2.0907-.2987-2.3147-.224-.29867-2.3147-.29867h-19.189q-2.0907 0-2.3893.29867-.224.224-.224 2.3147z"/>
   <path d="m1230.9 204.27v-33.003q0-4.256 2.9867-7.2427 3.0613-3.0613 7.3173-3.0613h24.043v9.7813h-21.952q-2.0907 0-2.3894.29867-.224.224-.224 2.3147v30.912z"/>
   <path d="m1280 204.27q-4.256 0-7.3173-2.9867-2.9867-3.0613-2.9867-7.3173v-22.699q0-4.256 2.9867-7.2427 3.0613-3.0613 7.3173-3.0613h33.6v9.7813h-31.509q-2.0907 0-2.3893.29867-.224.224-.224 2.3147v18.517q0 2.0907.224 2.3893.2986.224 2.3893.224h31.584v9.7813z"/>
   <path d="m1330 204.27q-4.256 0-7.3173-2.9867-2.9867-3.0613-2.9867-7.3173v-22.699q0-4.256 2.9867-7.2427 3.0613-3.0613 7.3173-3.0613h23.371q4.256 0 7.2426 3.0613 3.0614 2.9867 3.0614 7.2427v16.277h-34.197v4.3307q0 2.0907.224 2.3893.2987.224 2.3894.224h31.584v9.7813zm-.5227-25.536h24.416v-5.376q0-2.0907-.2986-2.3147-.224-.29867-2.3147-.29867h-19.189q-2.0907 0-2.3894.29867-.224.224-.224 2.3147z"/>
  </g>
 </g>
 <g fill="none" stroke="#0167db">
  <circle cx="192.73" cy="282.15" r="6.4457" stroke-width="4.4441" style="paint-order:fill markers stroke"/>
  <circle cx="282.48" cy="285.74" r="6.3974" stroke-width="4.4108" style="paint-order:fill markers stroke"/>
  <circle cx="598.61" cy="281.57" r="6.1443" stroke-width="4.2363" style="paint-order:fill markers stroke"/>
  <circle cx="369.78" cy="270.72" r="6.4457" stroke-width="4.4441" style="paint-order:fill markers stroke"/>
  <circle cx="394.95" cy="279.56" r="6.3974" stroke-width="4.4108" style="paint-order:fill markers stroke"/>
  <circle cx="536.13" cy="219.1" r="6.1443" stroke-width="4.2363" style="paint-order:fill markers stroke"/>
  <circle cx="564.12" cy="279" r="5.3486" stroke-width="3.6877" style="paint-order:fill markers stroke"/>
  <circle cx="598.71" cy="219.31" r="5.7464" stroke-width="3.962" style="paint-order:fill markers stroke"/>
  <circle cx="680.33" cy="241.31" r="5.5475" stroke-width="3.8248" style="paint-order:fill markers stroke"/>
  <circle cx="680.31" cy="270.08" r="6.3433" stroke-width="4.3735" style="paint-order:fill markers stroke"/>
  <circle cx="656.96" cy="221.1" r="6.3433" stroke-width="4.3735" style="paint-order:fill markers stroke"/>
  <circle cx="727.76" cy="229.36" r="5.9454" stroke-width="4.0992" style="paint-order:fill markers stroke"/>
  <circle cx="804.98" cy="241.77" r="5.7464" stroke-width="3.962" style="paint-order:fill markers stroke"/>
  <circle cx="775.63" cy="279.28" r="5.7464" stroke-width="3.962" style="paint-order:fill markers stroke"/>
  <circle cx="827.59" cy="224.28" r="5.5475" stroke-width="3.8248" style="paint-order:fill markers stroke"/>
  <circle cx="1035.4" cy="232.97" r="5.9454" stroke-width="4.0992" style="paint-order:fill markers stroke"/>
  <circle cx="1085.9" cy="278.73" r="5.5391" stroke-width="3.819" style="paint-order:fill markers stroke"/>
  <circle cx="1252.2" cy="279.27" r="6.1443" stroke-width="4.2363" style="paint-order:fill markers stroke"/>
  <circle cx="1366.5" cy="271.07" r="5.8147" stroke-width="4.0091" style="paint-order:fill markers stroke"/>
  <circle cx="704.33" cy="279.85" r="6.3433" stroke-width="4.3735" style="paint-order:fill markers stroke"/>
  <circle cx="1109.9" cy="278.78" r="5.5433" stroke-width="3.8219" style="paint-order:fill markers stroke"/>
  <circle cx="1170.4" cy="279.05" r="5.9454" stroke-width="4.0992" style="paint-order:fill markers stroke"/>
  <circle cx="1193.9" cy="279.06" r="5.5475" stroke-width="3.8248" style="paint-order:fill markers stroke"/>
  <circle cx="858.96" cy="224.15" r="5.5475" stroke-width="3.8248" style="paint-order:fill markers stroke"/>
  <circle cx="890.28" cy="224.42" r="5.5475" stroke-width="3.8248" style="paint-order:fill markers stroke"/>
  <circle cx="874.49" cy="278.75" r="5.5391" stroke-width="3.819" style="paint-order:fill markers stroke"/>
  <circle cx="843.72" cy="278.77" r="5.5433" stroke-width="3.8219" style="paint-order:fill markers stroke"/>
  <circle cx="433.98" cy="279.28" r="6.3974" stroke-width="4.4108" style="paint-order:fill markers stroke"/>
  <circle cx="1133" cy="278.46" r="4.85" stroke-width="3.3439" style="paint-order:fill markers stroke"/>
  <circle cx="1146.8" cy="278.65" r="4.85" stroke-width="3.3439" style="paint-order:fill markers stroke"/>
 </g>
 <g display="none" fill="none" stroke="#004fa9" stroke-width="2.762">
  <circle cx="245.98" cy="240.83" r="4.0059" display="inline" style="paint-order:fill markers stroke"/>
  <circle cx="491.91" cy="270.16" r="4.0059" display="inline" style="paint-order:fill markers stroke"/>
  <circle cx="499.89" cy="262.29" r="4.0059" display="inline" style="paint-order:fill markers stroke"/>
  <circle cx="529.36" cy="250.67" r="4.0059" display="inline" style="paint-order:fill markers stroke"/>
  <circle cx="565.5" cy="241.02" r="4.0059" display="inline" style="paint-order:fill markers stroke"/>
  <circle cx="564.74" cy="269.97" r="4.0059" display="inline" style="paint-order:fill markers stroke"/>
  <circle cx="656.11" cy="241.21" r="4.0059" display="inline" style="paint-order:fill markers stroke"/>
  <circle cx="655.54" cy="269.97" r="4.0059" display="inline" style="paint-order:fill markers stroke"/>
  <circle cx="732.91" cy="241.59" r="4.0059" display="inline" style="paint-order:fill markers stroke"/>
  <circle cx="1041.3" cy="270.16" r="4.0059" display="inline" style="paint-order:fill markers stroke"/>
  <circle cx="1286.1" cy="241.02" r="4.0059" display="inline" style="paint-order:fill markers stroke"/>
  <circle cx="1329.2" cy="241.21" r="4.0059" display="inline" style="paint-order:fill markers stroke"/>
  <circle cx="1329.4" cy="270.16" r="4.0059" display="inline" style="paint-order:fill markers stroke"/>
  <circle cx="1250.9" cy="270.35" r="4.0059" display="inline" style="paint-order:fill markers stroke"/>
 </g>
</svg>
