<svg width="24" height="24" enable-background="new" version="1.1" viewBox="0 0 260.2 260.2" xmlns="http://www.w3.org/2000/svg">
 <title>Page Restrict for WooCommerce Logo</title>
 <defs>
  <filter id="a" style="color-interpolation-filters:sRGB">
   <feBlend in2="BackgroundImage" mode="saturation"/>
  </filter>
 </defs>
 <g transform="translate(0 -22.767)" style="stroke:#1c1c1c">
  <path d="m101.3 89.351v-31.759" style="fill:none;stroke-width:3.388;stroke:#1c1c1c"/>
 </g>
 <g transform="translate(.56684 -23.022)" style="stroke:#1c1c1c">
  <path d="m201.23 74.704v-16.427m0 34.634v-18.207l22.989-6.1598v-9.8569" style="fill:none;stroke-width:3.388;stroke:#1c1c1c"/>
 </g>
 <g transform="translate(0 -19.515)" style="stroke:#1c1c1c">
  <path d="m219.85 115.63h25.873m-52.02 0h26.147l6.2663-18.172h10.024" style="fill:none;stroke-width:3.388;stroke:#1c1c1c"/>
 </g>
 <g transform="translate(0 -24.664)" style="stroke:#1c1c1c">
  <path d="m192.2 160.95h20.808l14.785-14.785h18.618" style="fill:none;stroke-width:3.388;stroke:#1c1c1c"/>
 </g>
 <g transform="translate(0 -24.664)" style="stroke:#1c1c1c">
  <path d="m179.33 188.19h29.843" style="fill:none;stroke-width:3.388;stroke:#1c1c1c"/>
 </g>
 <g transform="translate(0 -24.664)" style="stroke:#1c1c1c">
  <path d="m222.86 204.07h18.207m-36.825 0h18.618l7.8442-13.587h20.63m-82.41 13.587h35.319l7.689 13.318h10.929" style="fill:none;stroke-width:3.388;stroke:#1c1c1c"/>
 </g>
 <g transform="translate(0 -26.833)" style="stroke:#1c1c1c">
  <path d="m162.9 222.41v30.125m0-48.195v18.07l18.042 17.19v17.148" style="fill:none;stroke-width:3.388;stroke:#1c1c1c"/>
 </g>
 <g transform="translate(0 -26.833)" style="stroke:#1c1c1c">
  <path d="m132.24 216.39v18.07l-5.4181 9.3844v8.9594" style="fill:none;stroke-width:3.388;stroke:#1c1c1c"/>
 </g>
 <g transform="translate(0 -26.833)" style="stroke:#1c1c1c">
  <path d="m109.36 227.61v23.231m0-36.305v13.074l-25.987 6.9631v24.371" style="fill:none;stroke-width:3.388;stroke:#1c1c1c"/>
 </g>
 <g transform="translate(0 -24.664)" style="stroke:#1c1c1c">
  <path d="m50.925 210.64h-33.676m85.696 0h-52.02l-12.491-21.635h-22.28" style="fill:none;stroke-width:3.388;stroke:#1c1c1c"/>
 </g>
 <g transform="translate(0 -24.664)" style="stroke:#1c1c1c">
  <path d="m33.539 148.35h-20.945m39.426 0h-18.481l-8.25 14.289h-13.379m62.013-14.289h-21.903l-6.9159-11.979h-9.6483" style="fill:none;stroke-width:3.388;stroke:#1c1c1c"/>
 </g>
 <g transform="translate(0 -24.664)" style="stroke:#1c1c1c">
  <path d="m71.048 100.99h-15.88l-18.481 18.481h-19.987" style="fill:none;stroke-width:3.388;stroke:#1c1c1c"/>
 </g>
 <g transform="translate(3.7945 -26.291)">
  <path transform="translate(0 -36.805)" d="m59.166 111.77v-16m0 26.128v-10.127l17.294-6.981v-7.1274m-17.294 39.45v-15.215l-22.48-7.9208v-12.183" style="fill:none;stroke-width:3.388;stroke:#1c1c1c"/>
 </g>
 <g transform="translate(0 -24.664)" style="stroke:#1c1c1c">
  <path d="m171.94 90.994v-24.093" style="fill:none;stroke-width:3.388;stroke:#1c1c1c"/>
 </g>
 <g transform="translate(0 -24.664)" style="fill:#4d4d4d;stroke:#1c1c1c">
  <path d="m82.684 173.95h-36.414" style="fill:#4d4d4d;stroke-width:3.388;stroke:#1c1c1c"/>
  <g style="fill:#4d4d4d;stroke-width:2.561;stroke:#1c1c1c">
   <circle cx="101.4" cy="52.954" r="9.9585" style="fill:#4d4d4d;paint-order:fill markers stroke;stroke-width:5.122;stroke:#1c1c1c"/>
   <circle cx="224.57" cy="51.338" r="9.9585" style="fill:#4d4d4d;paint-order:fill markers stroke;stroke-width:5.122;stroke:#1c1c1c"/>
   <circle transform="translate(.56684 1.6427)" cx="200.96" cy="57.592" r="4.9792" style="fill:#4d4d4d;paint-order:fill markers stroke;stroke-width:2.561;stroke:#1c1c1c"/>
   <circle cx="243.94" cy="100.25" r="9.9585" style="fill:#4d4d4d;paint-order:fill markers stroke;stroke-width:5.122;stroke:#1c1c1c"/>
   <circle transform="translate(0 5.1497)" cx="247.23" cy="115.36" r="4.9792" style="fill:#4d4d4d;paint-order:fill markers stroke;stroke-width:2.561;stroke:#1c1c1c"/>
   <circle cx="247.5" cy="145.2" r="9.9585" style="fill:#4d4d4d;paint-order:fill markers stroke;stroke-width:5.122;stroke:#1c1c1c"/>
   <circle cx="210.82" cy="187.37" r="9.9585" style="fill:#4d4d4d;paint-order:fill markers stroke;stroke-width:5.122;stroke:#1c1c1c"/>
   <circle cx="250.79" cy="190.11" r="4.9792" style="fill:#4d4d4d;paint-order:fill markers stroke;stroke-width:2.561;stroke:#1c1c1c"/>
   <circle cx="242.03" cy="203.79" r="4.9792" style="fill:#4d4d4d;paint-order:fill markers stroke;stroke-width:2.561;stroke:#1c1c1c"/>
   <circle cx="228.89" cy="218.8" r="9.9585" style="fill:#4d4d4d;paint-order:fill markers stroke;stroke-width:5.122;stroke:#1c1c1c"/>
   <circle cx="181.02" cy="254.52" r="4.9792" style="fill:#4d4d4d;paint-order:fill markers stroke;stroke-width:2.561;stroke:#1c1c1c"/>
   <circle cx="163.18" cy="250.37" r="4.9792" style="fill:#4d4d4d;paint-order:fill markers stroke;stroke-width:2.561;stroke:#1c1c1c"/>
   <circle cx="126.95" cy="258.12" r="9.9585" style="fill:#4d4d4d;paint-order:fill markers stroke;stroke-width:5.122;stroke:#1c1c1c"/>
   <circle cx="109.52" cy="250.04" r="4.9792" style="fill:#4d4d4d;paint-order:fill markers stroke;stroke-width:2.561;stroke:#1c1c1c"/>
   <circle cx="83.232" cy="255.18" r="9.9585" style="fill:#4d4d4d;paint-order:fill markers stroke;stroke-width:5.122;stroke:#1c1c1c"/>
   <circle cx="15.332" cy="210.91" r="9.9585" style="fill:#4d4d4d;paint-order:fill markers stroke;stroke-width:5.122;stroke:#1c1c1c"/>
   <circle cx="13.963" cy="189.01" r="4.9792" style="fill:#4d4d4d;paint-order:fill markers stroke;stroke-width:2.561;stroke:#1c1c1c"/>
   <circle cx="10.404" cy="161.91" r="4.9792" style="fill:#4d4d4d;paint-order:fill markers stroke;stroke-width:2.561;stroke:#1c1c1c"/>
   <circle cx="12.594" cy="147.67" r="4.9792" style="fill:#4d4d4d;paint-order:fill markers stroke;stroke-width:2.561;stroke:#1c1c1c"/>
   <circle cx="34.497" cy="136.17" r="4.9792" style="fill:#4d4d4d;paint-order:fill markers stroke;stroke-width:2.561;stroke:#1c1c1c"/>
   <circle cx="16.154" cy="118.65" r="9.9585" style="fill:#4d4d4d;paint-order:fill markers stroke;stroke-width:5.122;stroke:#1c1c1c"/>
   <circle cx="40.68" cy="58.116" r="9.9585" style="fill:#4d4d4d;paint-order:fill markers stroke;stroke-width:5.122;stroke:#1c1c1c"/>
   <circle cx="63.231" cy="59.771" r="4.9792" style="fill:#4d4d4d;paint-order:fill markers stroke;stroke-width:2.561;stroke:#1c1c1c"/>
   <circle cx="80.168" cy="55.946" r="4.9792" style="fill:#4d4d4d;paint-order:fill markers stroke;stroke-width:2.561;stroke:#1c1c1c"/>
   <circle cx="171.86" cy="58.251" r="9.9585" style="fill:#4d4d4d;paint-order:fill markers stroke;stroke-width:5.122;stroke:#1c1c1c"/>
   <circle cx="42.711" cy="173.4" r="9.9585" style="fill:#4d4d4d;paint-order:fill markers stroke;stroke-width:5.122;stroke:#1c1c1c"/>
   <circle cx="161.91" cy="255.08" r="9.9585" style="fill:#4d4d4d;paint-order:fill markers stroke;stroke-width:5.122;stroke:#1c1c1c"/>
  </g>
 </g>
 <g style="fill:#3a3a3a;stroke:#1c1c1c">
  <g transform="matrix(3.6295 0 0 3.6295 13.782 5.1431)" style="fill:#3a3a3a;stroke:#1c1c1c">
   <rect x="22" y="33" width="20" height="12" style="fill:#3a3a3a;stroke:#1c1c1c"/>
   <path d="m36 34.5c0-.511-.049-1.009-.119-1.5h-13.881v11.39c1.096.388 2.271.61 3.5.61 5.799 0 10.5-4.701 10.5-10.5z" style="fill:#3a3a3a;stroke:#1c1c1c"/>
   <circle cx="32" cy="39" r="2" style="fill:#3a3a3a;stroke:#1c1c1c"/>
   <path d="m36 33v-6c0-2.209-1.791-4-4-4s-4 1.791-4 4v6h-4v-6c0-4.418 3.582-8 8-8s8 3.582 8 8v6z" style="fill:#3a3a3a;stroke:#1c1c1c"/>
   <g transform="matrix(.096361 0 0 .096361 9.3191 7.949)" style="fill:#3a3a3a;stroke:#1c1c1c">
    <path d="m242.5 467.84c-107.75-34.202-181.77-134.18-181.77-248.5v-109.78c75.698-16.503 131.31-46.998 181.77-81.797 51.542 35.756 106.07 65.653 181.77 81.917v109.78c0 114.21-74.024 214.18-181.77 248.38z" style="fill:#ececec;stroke-width:43.784;stroke:#1c1c1c"/>
   </g>
  </g>
  <g transform="matrix(1.5879 0 0 1.5879 -76.633 -63.742)" style="fill:#fff;stroke-width:1.0244;stroke:#dfdfdf">
   <path d="m131.63 78.91c-4.8726 0-8.9363 3.9514-8.8223 8.8226.0596 2.5473 2.4288 5.276 4.7244 6.2144l-.54404 1.83-4.9702 16.273h19.436l-4.951-16.202-.58791-1.8688c1.959-.63487 4.4871-3.2755 4.5374-6.247.0825-4.8719-3.95-8.8226-8.8226-8.8226z" style="fill:#1a1a1a;stroke-width:3.1543;stroke:#4d4d4d"/>
  </g>
 </g>
 <g style="stroke:#000">
  <g transform="matrix(.94091 .13224 -.13224 .94091 21.908 -4.2122)" style="stroke:#000">
   <g style="stroke:#000">
    <rect x="133.39" y="113.97" width="31.661" height="24.224" style="paint-order:fill markers stroke;stroke:#000"/>
    <rect x="147.48" y="113.72" width="3.1877" height="26.508" style="paint-order:fill markers stroke;stroke:#000"/>
    <path d="m165.05 113.97-15.829-2.6126" style="stroke-width:1.6262;stroke:#000"/>
    <path d="m133.39 113.97 15.223-1.9881" style="stroke-width:1.6262;stroke:#000"/>
   </g>
  </g>
  <g transform="matrix(-.81491 0 0 .81491 238.45 30.729)" style="stroke:#000">
   <g style="stroke:#000">
    <rect x="133.39" y="113.97" width="31.661" height="24.224" style="paint-order:fill markers stroke;stroke:#000"/>
    <rect x="147.48" y="113.72" width="3.1877" height="26.508" style="paint-order:fill markers stroke;stroke:#000"/>
    <path d="m165.05 113.97-16.025-2.5602" style="stroke-width:1.8961;stroke:#000"/>
    <path d="m133.39 113.97 14.64-2.2825" style="stroke-width:1.8961;stroke:#000"/>
   </g>
  </g>
 </g>
 <g transform="matrix(.19477 0 0 .19477 74.685 79.304)">
  <path d="m126.88 264.36h345.97l-29.178 119.82-275.98 9.56z" style="fill:#757575"/>
  <g style="fill:#fff">
   <path d="m169.77 399.67 276.5-7.6755c3.609-.129 6.613-2.811 7.149-6.382l30.002-122.07c.324-2.159-.31-4.352-1.734-6.007-1.424-1.654-3.499-2.5945-5.683-2.606h-348.51l-17.864-61.099c-.015-.063-.037-.121-.053-.183-.041-.154-.084-.307-.134-.457-.031-.095-.067-.187-.103-.279-.051-.135-.103-.269-.161-.399-.048-.106-.099-.21-.15-.313-.056-.11-.111-.219-.173-.326-.064-.115-.133-.226-.203-.336-.058-.09-.116-.18-.177-.267-.081-.115-.165-.226-.251-.335-.063-.079-.125-.157-.189-.233-.092-.106-.186-.209-.282-.31-.071-.075-.143-.148-.217-.219-.096-.092-.194-.181-.295-.268-.084-.073-.17-.145-.257-.214-.097-.076-.195-.149-.295-.22-.099-.071-.199-.141-.302-.207-.096-.062-.193-.12-.292-.177-.111-.064-.224-.127-.338-.186-.1-.051-.2-.099-.302-.146-.116-.054-.233-.105-.353-.153-.109-.044-.221-.083-.333-.122-.113-.038-.227-.077-.342-.11-.129-.038-.259-.069-.39-.1-.103-.024-.204-.048-.308-.067-.15-.028-.302-.05-.455-.069-.089-.011-.178-.023-.268-.031-.166-.015-.333-.022-.5-.025-.059-.001-.116-.009-.175-.009h-42.671c-4.143 0-7.5 3.358-7.5 7.5 0 4.143 3.36 7.6568 7.5 7.5h36.749l55.963 189.8c-.17453 16.978-1.3436 10.659-1.3436 24.675 0 20.678 4.298 33.325 24.976 33.325.006 0 .013-.001.019-.001h257.46c4.143 0 7.5-3.358 7.5-7.5s-3.357-7.5-7.5-7.5h-257.47l9.7279.001c-12.401-.007-17.947-3.8148-18.65-16.041-.26242-14.561 2.6908-20.159 2.6908-20.159zm210.74-65.923-6.492 45.819-60.515 2.162v-47.98h67.007zm-67.007-15v-48.82h74.422l-6.303 48.82zm-15 63.516-60.709 2.168-8.902-50.684h69.611zm141.01-5.037-50.411 1.801 6.452-45.28h56.744zm15.035-58.479h-57.882l6.303-48.82h64.33zm-156.04-48.82v48.82h-71.056l-8.187-48.82zm-94.312 0 8.187 48.82h-65.248l-16.065-48.82zm-53.489 63.82h63.121l8.954 51.221-53.679 1.818z" style="fill:#303030"/>
  </g>
 </g>
 <g transform="translate(0 -36.805)" style="display:none">
  <g transform="matrix(.19477 0 0 .19477 74.685 106.62)" style="display:inline">
   <path d="m121.32 233.74h350.15l-27.786 150.44-275.98 9.56z" style="fill:#e6e9ed"/>
   <path d="m176 402c.884 0 1.729-.161 2.517-.442l267.75-9.564c3.609-.129 6.613-2.811 7.149-6.382l30.002-152.69c.324-2.159-.31-4.352-1.734-6.007-1.424-1.654-3.499-2.5945-5.683-2.606h-354.08l-17.864-61.099c-.015-.063-.037-.121-.053-.183-.041-.154-.084-.307-.134-.457-.031-.095-.067-.187-.103-.279-.051-.135-.103-.269-.161-.399-.048-.106-.099-.21-.15-.313-.056-.11-.111-.219-.173-.326-.064-.115-.133-.226-.203-.336-.058-.09-.116-.18-.177-.267-.081-.115-.165-.226-.251-.335-.063-.079-.125-.157-.189-.233-.092-.106-.186-.209-.282-.31-.071-.075-.143-.148-.217-.219-.096-.092-.194-.181-.295-.268-.084-.073-.17-.145-.257-.214-.097-.076-.195-.149-.295-.22-.099-.071-.199-.141-.302-.207-.096-.062-.193-.12-.292-.177-.111-.064-.224-.127-.338-.186-.1-.051-.2-.099-.302-.146-.116-.054-.233-.105-.353-.153-.109-.044-.221-.083-.333-.122-.113-.038-.227-.077-.342-.11-.129-.038-.259-.069-.39-.1-.103-.024-.204-.048-.308-.067-.15-.028-.302-.05-.455-.069-.089-.011-.178-.023-.268-.031-.166-.015-.333-.022-.5-.025-.059-.001-.116-.009-.175-.009h-42.671c-4.143 0-7.5 3.358-7.5 7.5 0 4.143 3.357 7.5 7.5 7.5h36.749l66.814 219.36c-11.42 6.435-19.153 18.671-19.153 32.687 0 20.678 16.822 37.5 37.5 37.5.006 0 .013-.001.019-.001h269.98c4.143 0 7.5-3.358 7.5-7.5s-3.357-7.5-7.5-7.5h-270c-.005 0-.009.001-.013.001-12.401-.007-22.487-10.098-22.487-22.5 0-12.409 10.093-22.502 22.499-22.502zm204.51-84.952-6.492 62.518-60.515 2.162v-64.679h67.007zm-67.007-15v-62.735h74.422l-6.303 62.735zm-15 80.215-60.709 2.168-8.902-67.383h69.611zm141.01-5.037-50.411 1.801 6.452-61.979h56.744zm15.035-75.178h-57.882l6.303-62.735h64.33zm-156.04-62.735v62.735h-71.056l-8.187-62.735zm-94.312 0 8.187 62.735h-66.64l-20.24-62.735zm-54.881 77.735h64.513l8.954 67.92-50.896 1.818z" style="fill:#ccd1d9"/>
  </g>
 </g>
 <g style="fill:#fff;stroke:#dfdfdf">
  <circle cx="113.95" cy="170.05" r="5.0573" style="fill:#fff;paint-order:fill markers stroke;stroke-width:4.1249;stroke:#000"/>
  <circle cx="150.66" cy="170.24" r="5.0573" style="fill:#fff;paint-order:fill markers stroke;stroke-width:4.1249;stroke:#070707"/>
 </g>
 <g style="display:none;filter:url(#a)">
  <rect x="-.23324" y="-.93502" width="261.24" height="261.85" style="fill-opacity:.97285;paint-order:fill markers stroke"/>
 </g>
</svg>
